# xmcd
#
# Track frame offsets:
#	150
#	14026
#	31838
#	50767
#	71855
#	93005
#	110704
#	124583
#	142374
#	161315
#	182421
#	203597
#
# Disc length: 2950 seconds
#
# Revision: 1
# Processed by: cddbd v1.5.1PL2 Copyright (c) Steve Scherf et al.
# Submitted via: audiograbber 1.83.01
#
DISCID=a70b840c
DTITLE=Mcgraw, Tim - Cb20290
DYEAR=1900
DGENRE=Country
TTITLE0=Smilin' (Vocal)
TTITLE1=Set This Circus Down (Vocal)
TTITLE2=You Get Used To Somebody (Vocal)
TTITLE3=Let Me Love You (Vocal)
TTITLE4=Angry All The Time (Vocal)
TTITLE5=Why We Said Goodbye (Vocal)
TTITLE6=Smilin'
TTITLE7=Set This Circus Down
TTITLE8=You Get Used To Somebody
TTITLE9=Let Me Love You
TTITLE10=Angry All The Time
TTITLE11=Why We Said Goodbye
EXTD=
EXTT0=
EXTT1=
EXTT2=
EXTT3=
EXTT4=
EXTT5=
EXTT6=
EXTT7=
EXTT8=
EXTT9=
EXTT10=
EXTT11=
PLAYORDER=
